<svg xmlns="http://www.w3.org/2000/svg" width="64" height="64" id="svg4901"><g id="layer1" color="#000" fill="#fff"><path d="M30.72 1.28C13.76 1.28 0 15.043 0 32s13.76 30.72 30.72 30.72c16.957 0 30.686-13.762 30.686-30.72S47.676 1.28 30.72 1.28zm0 .657c16.598 0 30.03 13.464 30.03 30.063 0 16.6-13.432 30.063-30.03 30.063C14.12 62.063.655 48.599.655 32 .656 15.4 14.12 1.937 30.72 1.937z" id="path3137-3-3-8-1-8-0-2" overflow="visible"/><path d="M30.706 4.62C15.584 4.62 3.326 16.878 3.326 32s12.258 27.38 27.38 27.38c6.98 0 13.35-2.614 18.185-6.913-1.368-1.218-2.618-2.568-3.72-4.035-3.858 3.4-8.917 5.464-14.464 5.464C18.613 53.896 8.81 44.094 8.81 32c0-12.094 9.803-21.896 21.896-21.896 5.547 0 10.606 2.065 14.464 5.464 1.102-1.467 2.352-2.818 3.72-4.035-4.835-4.3-11.203-6.913-18.184-6.913zm21.906 10.958c-1.412 1.244-2.668 2.663-3.72 4.23C51.23 23.293 52.6 27.485 52.6 32c0 4.514-1.37 8.706-3.71 12.192 1.052 1.567 2.31 2.986 3.72 4.23 3.434-4.575 5.474-10.26 5.474-16.422 0-6.16-2.04-11.847-5.474-16.422z" id="path3139-3-0-2-0-0-7-6-7" overflow="visible"/><path id="rect4548-2" stroke-width=".869" overflow="visible" d="M40.923 34.4H64v-5.756H40.923z"/></g></svg>